<svg width="512" height="512" viewBox="0 0 512 512" xmlns="http://www.w3.org/2000/svg" role="img" aria-labelledby="title desc">
  <title id="title">Stylized Jersey cow illustration</title>
  <desc id="desc">Minimal illustration of a Jersey cow on a warm gradient background.</desc>
  <defs>
    <linearGradient id="bg" x1="0%" y1="0%" x2="100%" y2="100%">
      <stop offset="0%" stop-color="#fef6e4" />
      <stop offset="100%" stop-color="#f3c892" />
    </linearGradient>
    <linearGradient id="body" x1="0%" y1="0%" x2="100%" y2="100%">
      <stop offset="0%" stop-color="#d68b4c" />
      <stop offset="100%" stop-color="#b56a2d" />
    </linearGradient>
  </defs>
  <rect width="512" height="512" fill="url(#bg)" rx="48" />
  <g transform="translate(60 180)">
    <ellipse cx="140" cy="160" rx="36" ry="52" fill="#3b2f2f" opacity="0.2" />
    <ellipse cx="300" cy="160" rx="40" ry="52" fill="#3b2f2f" opacity="0.25" />
    <path d="M40 160c0-24 24-44 64-52l36-6 36-52c14-20 32-30 58-30h42c18 0 36 8 48 22l32 38c12 16 18 36 18 56v24c0 32-24 56-58 56H130c-54 0-90-20-90-56z" fill="url(#body)" />
    <path d="M252 32l18 14c10 8 16 20 16 32v12c0 12-10 22-22 22h-36c-14 0-24-10-24-22v-18c0-18 18-40 48-40z" fill="#f8d7b4" />
    <ellipse cx="266" cy="74" rx="6" ry="8" fill="#2b1a0f" />
    <ellipse cx="288" cy="74" rx="6" ry="8" fill="#2b1a0f" />
    <path d="M268 98c6 8 16 8 22 0" fill="none" stroke="#2b1a0f" stroke-width="3" stroke-linecap="round" />
    <path d="M120 116l-12 44c-6 20-18 36-34 46" fill="none" stroke="#8f4d19" stroke-width="10" stroke-linecap="round" opacity="0.5" />
    <path d="M340 140l26 26c8 8 12 18 12 30v10c0 6-4 12-10 12h-18c-6 0-10-4-10-10v-46z" fill="#d68b4c" />
    <path d="M72 132l-40-24c-10-6-16-16-16-28 0-8 4-16 10-20l34-22" fill="none" stroke="#8f4d19" stroke-width="12" stroke-linecap="round" opacity="0.55" />
  </g>
  <text x="50%" y="470" text-anchor="middle" font-family="'Poppins', 'Helvetica', sans-serif" font-size="48" font-weight="600" fill="#5f3b1d" opacity="0.75">Jersey</text>
</svg>
